<?xml version="1.0" encoding="UTF-8" standalone="no"?>
<!-- Created with Inkscape (http://www.inkscape.org/) -->

<svg
   xmlns:dc="http://purl.org/dc/elements/1.1/"
   xmlns:cc="http://creativecommons.org/ns#"
   xmlns:rdf="http://www.w3.org/1999/02/22-rdf-syntax-ns#"
   xmlns:svg="http://www.w3.org/2000/svg"
   xmlns="http://www.w3.org/2000/svg"
   xmlns:sodipodi="http://sodipodi.sourceforge.net/DTD/sodipodi-0.dtd"
   xmlns:inkscape="http://www.inkscape.org/namespaces/inkscape"
   width="864"
   height="140"
   id="svg2"
   version="1.1"
   inkscape:version="0.48.3.1 r9886"
   sodipodi:docname="head.svg">
  <defs
     id="defs4">
    <filter
       inkscape:collect="always"
       id="filter3790"
       x="-0.087171435"
       width="1.1743429"
       y="-0.29975617"
       height="1.5995125"
       color-interpolation-filters="sRGB">
      <feGaussianBlur
         inkscape:collect="always"
         stdDeviation="9.5502665"
         id="feGaussianBlur3792" />
    </filter>
    <filter
       inkscape:collect="always"
       id="filter3806"
       x="-0.068995915"
       width="1.1379918"
       y="-0.64597172"
       height="2.2919433"
       color-interpolation-filters="sRGB">
      <feGaussianBlur
         inkscape:collect="always"
         stdDeviation="25.409903"
         id="feGaussianBlur3808" />
    </filter>
    <filter
       inkscape:collect="always"
       id="filter3826"
       x="-0.036188252"
       width="1.0723765"
       y="-0.5045138"
       height="2.0090275"
       color-interpolation-filters="sRGB">
      <feGaussianBlur
         inkscape:collect="always"
         stdDeviation="13.327454"
         id="feGaussianBlur3828" />
    </filter>
    <filter
       inkscape:collect="always"
       id="filter3874"
       x="-0.091143377"
       width="1.1822867"
       y="-0.43400186"
       height="1.8680037"
       color-interpolation-filters="sRGB">
      <feGaussianBlur
         inkscape:collect="always"
         stdDeviation="6.9983396"
         id="feGaussianBlur3876" />
    </filter>
    <filter
       inkscape:collect="always"
       id="filter3878"
       x="-0.094677299"
       width="1.1893547"
       y="-0.3136954"
       height="1.6273907"
       color-interpolation-filters="sRGB">
      <feGaussianBlur
         inkscape:collect="always"
         stdDeviation="5.032197"
         id="feGaussianBlur3880" />
    </filter>
    <filter
       inkscape:collect="always"
       id="filter3989"
       x="-0.072703646"
       width="1.1454073"
       y="-0.73850329"
       height="2.4770066">
      <feGaussianBlur
         inkscape:collect="always"
         stdDeviation="26.77539"
         id="feGaussianBlur3991" />
    </filter>
    <filter
       inkscape:collect="always"
       id="filter4005"
       x="-0.056606507"
       width="1.113213"
       y="-0.57499306"
       height="2.1499861">
      <feGaussianBlur
         inkscape:collect="always"
         stdDeviation="20.847115"
         id="feGaussianBlur4007" />
    </filter>
  </defs>
  <sodipodi:namedview
     id="base"
     pagecolor="#ffffff"
     bordercolor="#666666"
     borderopacity="1.0"
     inkscape:pageopacity="0.0"
     inkscape:pageshadow="2"
     inkscape:zoom="0.98994949"
     inkscape:cx="323.94582"
     inkscape:cy="88.168934"
     inkscape:document-units="px"
     inkscape:current-layer="layer1"
     showgrid="false"
     inkscape:window-width="1278"
     inkscape:window-height="779"
     inkscape:window-x="0"
     inkscape:window-y="19"
     inkscape:window-maximized="0" />
  <metadata
     id="metadata7">
    <rdf:RDF>
      <cc:Work
         rdf:about="">
        <dc:format>image/svg+xml</dc:format>
        <dc:type
           rdf:resource="http://purl.org/dc/dcmitype/StillImage" />
        <dc:title></dc:title>
      </cc:Work>
    </rdf:RDF>
  </metadata>
  <g
     inkscape:label="Layer 1"
     inkscape:groupmode="layer"
     id="layer1"
     transform="translate(0,-912.36218)">
    <path
       style="fill:#fcff00;fill-opacity:1;filter:url(#filter3790)"
       d="m 620.9375,45.59375 c 12.10178,2.861281 24.22115,5.713244 36.21875,8.75 16.57355,4.194994 32.97898,8.54965 49.0625,12.9375 16.08352,4.38785 31.83813,8.834035 47.09375,13.25 15.25562,4.415965 30.0039,8.783162 44.09375,13.0625 28.1797,8.55868 53.69808,16.69503 75.1875,23.71875 4.74739,1.55166 6.94091,2.34377 11.28125,3.78125 l 0,-26.4375 c -2.1097,-0.579932 -3.74965,-0.908447 -6,-1.5625 -8.14584,-2.367545 -17.21097,-5.246985 -27.3125,-8.65625 -10.10153,-3.409265 -19.91553,-6.563998 -29.4375,-9.5 -9.52197,-2.936002 -18.75136,-5.645983 -27.75,-8.125 -8.99864,-2.479017 -17.7497,-4.742942 -26.28125,-6.78125 -8.53155,-2.038308 -16.84807,-3.854873 -24.96875,-5.46875 -8.12068,-1.613877 -16.04646,-3.013028 -23.8125,-4.21875 -7.76604,-1.205722 -15.37612,-2.217406 -22.84375,-3.03125 -7.46763,-0.813844 -14.8058,-1.436758 -22.03125,-1.875 -7.22545,-0.438242 -14.3355,-0.702332 -21.375,-0.78125 -7.0395,-0.07892 -13.99647,0.01712 -20.90625,0.28125 -3.42361,0.130869 -6.81172,0.43774 -10.21875,0.65625 z"
       id="path3008"
       transform="translate(0,912.36218)"
       inkscape:connector-curvature="0" />
    <path
       style="fill:#ffff33;fill-opacity:1;filter:url(#filter3878)"
       d="m 127.5625,61.5625 c -4.92315,0.119309 -9.81901,0.254642 -14.4375,0.65625 C 101.50825,63.228903 90.549139,64.424175 80.21875,65.75 69.888361,67.075825 60.184171,68.547271 51.1875,70.0625 42.190829,71.577729 33.896853,73.140387 26.28125,74.71875 18.665647,76.297113 11.749684,77.891021 5.5625,79.40625 3.459412,79.921292 1.9343846,80.377027 0,80.875 l 0,19.1875 C 11.668209,97.031121 24.007907,93.718591 37.4375,89.84375 52.952812,85.367117 69.333752,80.427349 85.875,75.21875 99.839756,70.821451 113.80013,66.204009 127.5625,61.5625 z"
       id="path3004"
       transform="translate(0,912.36218)"
       inkscape:connector-curvature="0" />
    <path
       style="fill:#caff00;fill-opacity:1;filter:url(#filter3874)"
       d="m 111.40006,944.63029 c -13.762371,4.6415 -27.722741,9.2589 -41.687501,13.6562 -16.541247,5.2086 -32.922187,10.1484 -48.437499,14.625 -13.4295935,3.8749 -25.7692915,7.1874 -37.4375,10.2188 9.1635505,-0.8582 18.6704485,-1.6896 26.96875,-2.5938 13.269843,-1.4459 25.481472,-2.9775 36.75,-4.5312 11.268528,-1.5537 21.597849,-3.1321 31.124999,-4.7813 9.52715,-1.6491 18.23554,-3.3615 26.281251,-5.0937 8.04571,-1.7323 15.4258,-3.5095 22.25,-5.3125 6.8242,-1.8031 13.10612,-3.6386 18.96875,-5.5 5.86263,-1.8615 11.30775,-3.7487 16.46875,-5.6563 1.91269,-0.707 3.62796,-1.4128 5.46875,-2.125 -4.28937,-0.4347 -8.64004,-0.9228 -12.8125,-1.2812 -7.08241,-0.6084 -13.98143,-1.0955 -20.6875,-1.4063 -6.70607,-0.3107 -13.21861,-0.4667 -19.5,-0.4062 -1.28679,0.012 -2.45037,0.1567 -3.71875,0.1875 z"
       id="path2997"
       inkscape:connector-curvature="0" />
    <path
       style="fill:#beff00;fill-opacity:1;filter:url(#filter4005)"
       d="m 883.875,27.6875 c -0.95477,0.217659 -1.82361,0.328506 -2.84375,0.625 -2.25287,0.654774 -4.66148,1.520463 -7.25,2.59375 -2.58852,1.073287 -5.50143,1.907972 -8.6875,2.5625 -3.18607,0.654528 -6.65894,1.124118 -10.375,1.40625 -3.71606,0.282132 -7.66528,0.387648 -11.84375,0.34375 -4.17847,-0.0439 -8.58294,-0.238936 -13.15625,-0.5625 -4.57331,-0.323564 -9.31818,-0.786884 -14.21875,-1.34375 -4.90057,-0.556866 -9.93349,-1.193696 -15.09375,-1.9375 -10.32052,-1.487607 -21.10866,-3.324079 -32.0625,-5.28125 -21.90768,-3.914341 -44.55258,-8.370399 -65.75,-11.9375 -10.59871,-1.783551 -20.82724,-3.359632 -30.4375,-4.5 -4.80513,-0.5701838 -9.44959,-1.0351586 -13.90625,-1.375 -4.45666,-0.3398414 -8.70939,-0.5618655 -12.75,-0.625 -4.04061,-0.063135 -7.99075,0.073631 -11.875,0.375 -3.88425,0.3013687 -7.70601,0.7847694 -11.5,1.40625 -3.79399,0.621481 -7.57393,1.384049 -11.34375,2.28125 -3.76982,0.897201 -7.532,1.93397 -11.34375,3.0625 -7.6235,2.25706 -15.40599,4.927724 -23.59375,7.84375 -8.18776,2.916026 -16.78172,6.061389 -26.0625,9.28125 -9.28078,3.219861 -19.25371,6.518936 -30.15625,9.6875 -5.45127,1.584282 -11.13789,3.120129 -17.09375,4.625 -5.95586,1.504871 -12.16097,2.962682 -18.6875,4.34375 -6.52653,1.381068 -13.36795,2.693376 -20.53125,3.90625 -7.1633,1.212874 -14.66508,2.343462 -22.53125,3.34375 -7.86617,1.000288 -16.08362,1.88169 -24.71875,2.625 -8.63513,0.74331 -17.68607,1.339308 -27.15625,1.78125 -9.47018,0.441942 -18.70622,0.679467 -27.75,0.75 -9.04378,0.07053 -17.88249,-0.01127 -26.5625,-0.25 -8.68001,-0.238727 -17.21486,-0.63916 -25.59375,-1.125 -8.37889,-0.48584 -16.60959,-1.079196 -24.75,-1.75 -16.28082,-1.341609 -32.14101,-2.978922 -47.84375,-4.6875 -15.70274,-1.708578 -31.2492,-3.484137 -46.875,-5.0625 -7.8129,-0.789182 -15.64363,-1.524094 -23.53125,-2.1875 -7.88762,-0.663406 -15.81876,-1.243268 -23.84375,-1.71875 -8.02499,-0.475482 -16.15,-0.83709 -24.375,-1.0625 -8.225,-0.22541 -16.57485,-0.33681 -25.0625,-0.25 -8.487649,0.08681 -17.12456,0.351322 -25.9375,0.8125 -8.81294,0.461178 -17.799128,1.133556 -27,2.03125 -9.200872,0.897694 -18.598555,2.041142 -28.25,3.4375 C 7.7865037,51.698035 3.8191214,52.470402 0,53.09375 L 0,80.875 c 1.9343846,-0.497973 3.459412,-0.953708 5.5625,-1.46875 6.187184,-1.515229 13.103147,-3.109137 20.71875,-4.6875 7.615603,-1.578363 15.909579,-3.141021 24.90625,-4.65625 8.996671,-1.515229 18.700861,-2.986675 29.03125,-4.3125 10.330389,-1.325825 21.2895,-2.521097 32.90625,-3.53125 5.80838,-0.505076 11.87486,-0.783328 18.15625,-0.84375 6.28139,-0.06042 12.79393,0.09551 19.5,0.40625 6.70607,0.31074 13.60509,0.79784 20.6875,1.40625 7.08241,0.60841 14.33958,1.323663 21.75,2.15625 14.82083,1.665173 30.25093,3.722824 46.09375,5.84375 15.84282,2.120926 32.11564,4.323762 48.59375,6.3125 8.23906,0.994369 16.51838,1.930167 24.84375,2.78125 8.32537,0.851083 16.69915,1.615695 25.0625,2.25 8.36335,0.634305 16.70951,1.155966 25.0625,1.5 8.35299,0.344034 16.7057,0.51973 25,0.5 8.2943,-0.01973 16.53148,-0.261764 24.71875,-0.71875 8.18727,-0.456986 16.31185,-1.126016 24.34375,-2.09375 8.0319,-0.967734 15.98431,-2.229275 23.8125,-3.78125 3.91409,-0.775988 7.80215,-1.626672 11.65625,-2.5625 3.8541,-0.935828 7.68068,-1.957646 11.46875,-3.0625 7.57614,-2.209709 15.00024,-4.300651 22.3125,-6.28125 7.31226,-1.980599 14.48914,-3.858537 21.59375,-5.59375 7.10461,-1.735213 14.14057,-3.33895 21.09375,-4.8125 6.95318,-1.47355 13.82951,-2.80439 20.6875,-4 6.85799,-1.19561 13.68098,-2.254857 20.5,-3.15625 6.81902,-0.901393 13.63246,-1.62785 20.46875,-2.21875 6.83629,-0.5909 13.71522,-1.048371 20.625,-1.3125 6.90978,-0.264129 13.86675,-0.360168 20.90625,-0.28125 7.0395,0.07892 14.14955,0.343008 21.375,0.78125 7.22545,0.438242 14.56362,1.061156 22.03125,1.875 7.46763,0.813844 15.07771,1.825528 22.84375,3.03125 7.76604,1.205722 15.69182,2.604873 23.8125,4.21875 8.12068,1.613877 16.4372,3.430442 24.96875,5.46875 8.53155,2.038308 17.28261,4.302233 26.28125,6.78125 8.99864,2.479017 18.22803,5.188998 27.75,8.125 9.52197,2.936002 19.33597,6.090735 29.4375,9.5 10.10153,3.409265 19.16666,6.288705 27.3125,8.65625 2.25035,0.654053 3.8903,0.982568 6,1.5625 l 0,-66.96875 z"
       id="path2995"
       transform="matrix(1,0,0,1.8339817,0,882.01621)"
       inkscape:connector-curvature="0" />
    <path
       style="fill:#beff00;fill-opacity:1;filter:url(#filter3989)"
       d="m 883.875,27.6875 c -0.95477,0.217659 -1.82361,0.328506 -2.84375,0.625 -2.25287,0.654774 -4.66148,1.520463 -7.25,2.59375 -2.58852,1.073287 -5.50143,1.907972 -8.6875,2.5625 -3.18607,0.654528 -6.65894,1.124118 -10.375,1.40625 -3.71606,0.282132 -7.66528,0.387648 -11.84375,0.34375 -4.17847,-0.0439 -8.58294,-0.238936 -13.15625,-0.5625 -4.57331,-0.323564 -9.31818,-0.786884 -14.21875,-1.34375 -4.90057,-0.556866 -9.93349,-1.193696 -15.09375,-1.9375 -10.32052,-1.487607 -21.10866,-3.324079 -32.0625,-5.28125 -21.90768,-3.914341 -44.55258,-8.370399 -65.75,-11.9375 -10.59871,-1.783551 -20.82724,-3.359632 -30.4375,-4.5 -4.80513,-0.5701838 -9.44959,-1.0351586 -13.90625,-1.375 -4.45666,-0.3398414 -8.70939,-0.5618655 -12.75,-0.625 -4.04061,-0.063135 -7.99075,0.073631 -11.875,0.375 -3.88425,0.3013687 -7.70601,0.7847694 -11.5,1.40625 -3.79399,0.621481 -7.57393,1.384049 -11.34375,2.28125 -3.76982,0.897201 -7.532,1.93397 -11.34375,3.0625 -7.6235,2.25706 -15.40599,4.927724 -23.59375,7.84375 -8.18776,2.916026 -16.78172,6.061389 -26.0625,9.28125 -9.28078,3.219861 -19.25371,6.518936 -30.15625,9.6875 -5.45127,1.584282 -11.13789,3.120129 -17.09375,4.625 -5.95586,1.504871 -12.16097,2.962682 -18.6875,4.34375 -6.52653,1.381068 -13.36795,2.693376 -20.53125,3.90625 -7.1633,1.212874 -14.66508,2.343462 -22.53125,3.34375 -7.86617,1.000288 -16.08362,1.88169 -24.71875,2.625 -8.63513,0.74331 -17.68607,1.339308 -27.15625,1.78125 -9.47018,0.441942 -18.70622,0.679467 -27.75,0.75 -9.04378,0.07053 -17.88249,-0.01127 -26.5625,-0.25 -8.68001,-0.238727 -17.21486,-0.63916 -25.59375,-1.125 -8.37889,-0.48584 -16.60959,-1.079196 -24.75,-1.75 -16.28082,-1.341609 -32.14101,-2.978922 -47.84375,-4.6875 -15.70274,-1.708578 -31.2492,-3.484137 -46.875,-5.0625 -7.8129,-0.789182 -15.64363,-1.524094 -23.53125,-2.1875 -7.88762,-0.663406 -15.81876,-1.243268 -23.84375,-1.71875 -8.02499,-0.475482 -16.15,-0.83709 -24.375,-1.0625 -8.225,-0.22541 -16.57485,-0.33681 -25.0625,-0.25 -8.487649,0.08681 -17.12456,0.351322 -25.9375,0.8125 -8.81294,0.461178 -17.799128,1.133556 -27,2.03125 -9.200872,0.897694 -18.598555,2.041142 -28.25,3.4375 C 7.7865037,51.698035 3.8191214,52.470402 0,53.09375 L 0,80.875 c 1.9343846,-0.497973 3.459412,-0.953708 5.5625,-1.46875 6.187184,-1.515229 13.103147,-3.109137 20.71875,-4.6875 7.615603,-1.578363 15.909579,-3.141021 24.90625,-4.65625 8.996671,-1.515229 18.700861,-2.986675 29.03125,-4.3125 10.330389,-1.325825 21.2895,-2.521097 32.90625,-3.53125 5.80838,-0.505076 11.87486,-0.783328 18.15625,-0.84375 6.28139,-0.06042 12.79393,0.09551 19.5,0.40625 6.70607,0.31074 13.60509,0.79784 20.6875,1.40625 7.08241,0.60841 14.33958,1.323663 21.75,2.15625 14.82083,1.665173 30.25093,3.722824 46.09375,5.84375 15.84282,2.120926 32.11564,4.323762 48.59375,6.3125 8.23906,0.994369 16.51838,1.930167 24.84375,2.78125 8.32537,0.851083 16.69915,1.615695 25.0625,2.25 8.36335,0.634305 16.70951,1.155966 25.0625,1.5 8.35299,0.344034 16.7057,0.51973 25,0.5 8.2943,-0.01973 16.53148,-0.261764 24.71875,-0.71875 8.18727,-0.456986 16.31185,-1.126016 24.34375,-2.09375 8.0319,-0.967734 15.98431,-2.229275 23.8125,-3.78125 3.91409,-0.775988 7.80215,-1.626672 11.65625,-2.5625 3.8541,-0.935828 7.68068,-1.957646 11.46875,-3.0625 7.57614,-2.209709 15.00024,-4.300651 22.3125,-6.28125 7.31226,-1.980599 14.48914,-3.858537 21.59375,-5.59375 7.10461,-1.735213 14.14057,-3.33895 21.09375,-4.8125 6.95318,-1.47355 13.82951,-2.80439 20.6875,-4 6.85799,-1.19561 13.68098,-2.254857 20.5,-3.15625 6.81902,-0.901393 13.63246,-1.62785 20.46875,-2.21875 6.83629,-0.5909 13.71522,-1.048371 20.625,-1.3125 6.90978,-0.264129 13.86675,-0.360168 20.90625,-0.28125 7.0395,0.07892 14.14955,0.343008 21.375,0.78125 7.22545,0.438242 14.56362,1.061156 22.03125,1.875 7.46763,0.813844 15.07771,1.825528 22.84375,3.03125 7.76604,1.205722 15.69182,2.604873 23.8125,4.21875 8.12068,1.613877 16.4372,3.430442 24.96875,5.46875 8.53155,2.038308 17.28261,4.302233 26.28125,6.78125 8.99864,2.479017 18.22803,5.188998 27.75,8.125 9.52197,2.936002 19.33597,6.090735 29.4375,9.5 10.10153,3.409265 19.16666,6.288705 27.3125,8.65625 2.25035,0.654053 3.8903,0.982568 6,1.5625 l 0,-66.96875 z"
       id="path2995-7"
       transform="matrix(1,0,0,3.9255533,-103.84955,735.33277)"
       inkscape:connector-curvature="0" />
  </g>
</svg>
